<?xml version="1.0" encoding="utf-8"?>
<!-- Generator: Adobe Illustrator 21.0.2, SVG Export Plug-In . SVG Version: 6.00 Build 0)  -->
<svg version="1.1" id="Capa_1" xmlns="http://www.w3.org/2000/svg" xmlns:xlink="http://www.w3.org/1999/xlink" x="0px" y="0px"
	 viewBox="0 0 21 21" style="enable-background:new 0 0 21 21;" xml:space="preserve">
<path d="M20.5,20.3l-5.9-6.1c1.5-1.5,2.4-3.6,2.4-5.9C17,3.7,13.3,0,8.7,0S0.4,3.7,0.4,8.3s3.7,8.3,8.3,8.3c2,0,3.9-0.7,5.3-1.9
	l5.9,6.1c0.1,0.1,0.2,0.1,0.3,0.1c0.1,0,0.2,0,0.3-0.1C20.6,20.7,20.6,20.5,20.5,20.3z M8.7,15.8c-4.1,0-7.5-3.4-7.5-7.5
	s3.4-7.5,7.5-7.5s7.5,3.4,7.5,7.5S12.9,15.8,8.7,15.8z"/>
</svg>
