<?xml version="1.0" encoding="utf-8"?>
<!-- Generator: Adobe Illustrator 21.0.2, SVG Export Plug-In . SVG Version: 6.00 Build 0)  -->
<svg version="1.1" id="Capa_1" xmlns="http://www.w3.org/2000/svg" xmlns:xlink="http://www.w3.org/1999/xlink" x="0px" y="0px"
	 viewBox="0 0 30 30" style="enable-background:new 0 0 30 30;" xml:space="preserve">
<g>
	<path d="M27.4,6l-6,0.5c-0.7-2.5-2.7-4.4-5-4.9c-0.9-0.7-1.9-1.1-3-1.3V0.3h-0.8v0C8.8,0.8,5.8,3.9,5.7,7.8L0.8,8.2l3,19l17.6,2.8
		l4.2-2.1l4.1-19.2L27.4,6z M20.6,6.6l-1.2,0.1c-0.2-1.4-0.8-2.6-1.5-3.6C19.1,3.8,20.1,5.1,20.6,6.6z M16.1,2.4
		c1.3,1,2.2,2.6,2.5,4.3L9.7,7.5c0.6-2.8,3-4.9,5.9-5.1C15.7,2.4,15.9,2.4,16.1,2.4z M12.9,1.2c0.6,0,1.2,0.2,1.8,0.5
		c-3,0.5-5.4,2.9-5.9,5.9L6.5,7.7C6.7,4.2,9.5,1.4,12.9,1.2z M21.6,29l-0.3-0.1L27,6.6l0.3,0.1L21.6,29z"/>
</g>
</svg>
