<?xml version="1.0" encoding="utf-8"?>
<!-- Generator: Adobe Illustrator 21.0.2, SVG Export Plug-In . SVG Version: 6.00 Build 0)  -->
<svg version="1.1" id="Capa_1" xmlns="http://www.w3.org/2000/svg" xmlns:xlink="http://www.w3.org/1999/xlink" x="0px" y="0px"
	 viewBox="0 0 173.3 19.8" style="enable-background:new 0 0 173.3 19.8;" xml:space="preserve">
<style type="text/css">
	.st0{enable-background:new    ;}
</style>
<g class="st0">
	<path d="M17.3,13.7l1.5,1.3c-1.8,1.6-3.7,2.5-5.7,2.5c-2.1,0-4-0.8-5.5-2.3c-1.5-1.5-2.3-3.3-2.3-5.5c0-2.1,0.8-4,2.3-5.5
		C9.1,2.7,10.9,2,13.1,2c2,0,3.9,0.8,5.7,2.5l-1.5,1.3C16,4.6,14.5,4,13.1,4c-1.6,0-3,0.6-4.1,1.7C7.8,6.8,7.3,8.1,7.3,9.7
		c0,1.6,0.6,3,1.7,4.1c1.1,1.1,2.5,1.7,4.1,1.7C14.5,15.5,16,14.9,17.3,13.7z"/>
	<path d="M26.4,2.1L32,17.4h-2.1l-2-5.4h-4l-2,5.4h-2.1l5.5-15.2H26.4z M27.2,10l-1.3-3.6L24.6,10H27.2z"/>
	<path d="M33.9,2.1h1.8L41.9,13V2.1h2v15.2h-1.7l-6.4-11v11h-2V2.1z"/>
	<path d="M48.2,2.1c2.5,0,4.4,0.7,5.8,2.1c1.5,1.5,2.3,3.4,2.3,5.5c0,2.2-0.8,4-2.3,5.5c-1.4,1.4-3.3,2.1-5.8,2.1h-1.4V2.1H48.2z
		 M48.7,4.1v11.2c1.6,0,2.9-0.5,3.9-1.5c1.1-1.1,1.7-2.5,1.7-4.1c0-1.6-0.6-3-1.7-4.1C51.6,4.6,50.3,4.1,48.7,4.1z"/>
	<path d="M62.6,11.2l-5.3-9.1h2.3l4,6.9l4-6.9h2.3l-5.3,9.1v6.1h-2V11.2z"/>
	<path d="M90.2,13.7l1.5,1.3c-1.8,1.6-3.7,2.5-5.7,2.5c-2.1,0-4-0.8-5.5-2.3c-1.5-1.5-2.3-3.3-2.3-5.5c0-2.1,0.8-4,2.3-5.5
		C82,2.7,83.8,2,86,2c2,0,3.9,0.8,5.7,2.5l-1.5,1.3C88.9,4.6,87.4,4,86,4c-1.6,0-3,0.6-4.1,1.7c-1.1,1.1-1.7,2.5-1.7,4.1
		c0,1.6,0.6,3,1.7,4.1c1.1,1.1,2.5,1.7,4.1,1.7C87.4,15.5,88.9,14.9,90.2,13.7z"/>
	<path d="M107.1,4.2c1.5,1.5,2.3,3.4,2.3,5.5s-0.8,4-2.3,5.5c-1.5,1.5-3.4,2.3-5.5,2.3s-4-0.8-5.5-2.3c-1.5-1.5-2.3-3.4-2.3-5.5
		s0.8-4,2.3-5.5s3.4-2.3,5.5-2.3S105.6,2.7,107.1,4.2z M101.6,3.9c-1.6,0-3,0.6-4.1,1.7c-1.1,1.1-1.7,2.5-1.7,4.1
		c0,1.6,0.6,3,1.7,4.1c1.1,1.1,2.5,1.7,4.1,1.7c1.6,0,3-0.6,4.1-1.7c1.1-1.1,1.7-2.5,1.7-4.1c0-1.6-0.6-3-1.7-4.1
		C104.6,4.5,103.2,3.9,101.6,3.9z"/>
	<path d="M120.4,2.1h2v10.7c-0.2,1.2-0.7,2.3-1.5,3.1c-1,1-2.2,1.5-3.7,1.5c-1.4,0-2.6-0.5-3.7-1.5s-1.5-2.2-1.5-3.7V2.1h2v10.2
		c0,0.9,0.3,1.6,0.9,2.3s1.4,0.9,2.3,0.9c0.9,0,1.6-0.3,2.3-0.9c0.6-0.6,0.9-1.4,0.9-2.3V2.1z"/>
	<path d="M129.8,4.1v13.3h-2V4.1h-3.5v-2h9.1v2H129.8z"/>
	<path d="M143.6,2.1h2v10.7c-0.2,1.2-0.7,2.3-1.5,3.1c-1,1-2.2,1.5-3.7,1.5c-1.4,0-2.6-0.5-3.7-1.5s-1.5-2.2-1.5-3.7V2.1h2v10.2
		c0,0.9,0.3,1.6,0.9,2.3s1.4,0.9,2.3,0.9c0.9,0,1.6-0.3,2.3-0.9c0.6-0.6,0.9-1.4,0.9-2.3V2.1z"/>
	<path d="M152.2,12.5h-1.8v4.9h-2V2.1h4.3c1.2,0.2,2.3,0.7,3.1,1.5c1,1,1.5,2.2,1.5,3.7c0,1.4-0.5,2.7-1.5,3.7
		c-0.7,0.7-1.2,1.1-1.6,1.2l3.4,5.2h-2.4L152.2,12.5z M150.4,4.1v6.4h1.8c0.9,0,1.6-0.3,2.3-0.9c0.6-0.6,0.9-1.4,0.9-2.3
		c0-0.9-0.3-1.6-0.9-2.3c-0.6-0.6-1.4-0.9-2.3-0.9H150.4z"/>
	<path d="M167.8,2.1v2h-6.2v4.7h6.2v2h-6.2v4.7h6.2v2h-8.2V2.1H167.8z"/>
</g>
</svg>
