<?xml version="1.0" encoding="utf-8"?>
<!-- Generator: Adobe Illustrator 21.0.2, SVG Export Plug-In . SVG Version: 6.00 Build 0)  -->
<svg version="1.1" id="Capa_1" xmlns="http://www.w3.org/2000/svg" xmlns:xlink="http://www.w3.org/1999/xlink" x="0px" y="0px"
	 viewBox="0 0 37 37" style="enable-background:new 0 0 37 37;" xml:space="preserve">
<style type="text/css">
	.st0{fill:#0CC243;}
</style>
<g>
	<path id="WhatsApp" class="st0" d="M37,18c0,10-8.1,18-18.2,18c-3.2,0-6.2-0.8-8.8-2.2L0,37l3.3-9.7c-1.7-2.7-2.6-5.9-2.6-9.3
		c0-10,8.1-18,18.2-18C28.9,0,37,8.1,37,18z M18.8,2.9C10.4,2.9,3.6,9.7,3.6,18c0,3.3,1.1,6.4,2.9,8.9l-1.9,5.6l5.9-1.9
		c2.4,1.6,5.3,2.5,8.4,2.5c8.4,0,15.3-6.8,15.3-15.2S27.3,2.9,18.8,2.9z M28,22.2c-0.1-0.2-0.4-0.3-0.9-0.5c-0.4-0.2-2.6-1.3-3-1.4
		c-0.4-0.1-0.7-0.2-1,0.2c-0.3,0.4-1.1,1.4-1.4,1.7c-0.3,0.3-0.5,0.3-1,0.1c-0.4-0.2-1.9-0.7-3.6-2.2c-1.3-1.2-2.2-2.6-2.5-3.1
		c-0.3-0.4,0-0.7,0.2-0.9c0.2-0.2,0.4-0.5,0.7-0.8c0.2-0.3,0.3-0.4,0.4-0.7c0.1-0.3,0.1-0.6,0-0.8c-0.1-0.2-1-2.4-1.4-3.3
		c-0.4-0.9-0.7-0.7-1-0.7c-0.3,0-0.6,0-0.9,0c-0.3,0-0.8,0.1-1.2,0.6C11.1,10.8,10,11.9,10,14c0,2.2,1.6,4.3,1.8,4.6
		c0.2,0.3,3.1,4.9,7.6,6.7c4.5,1.8,4.5,1.2,5.3,1.1c0.8-0.1,2.6-1.1,3-2.1C28.1,23.2,28.1,22.4,28,22.2z"/>
</g>
</svg>
